<svg xmlns="http://www.w3.org/2000/svg" viewBox="0 0 64 64" fill="none">
  <rect width="64" height="64" rx="14" fill="url(#g)"/>
  <path d="M18 20c0-2.2 1.8-4 4-4h8v32h-8c-2.2 0-4-1.8-4-4V20z" fill="#fff" fill-opacity="0.92"/>
  <path d="M34 16h8c2.2 0 4 1.8 4 4v28c0 2.2-1.8 4-4 4h-8V16z" fill="#fff" fill-opacity="0.72"/>
  <path d="M30 22h4v3h-4v-3zm0 7h4v3h-4v-3zm0 7h4v3h-4v-3z" fill="#2F5FD0"/>
  <circle cx="46" cy="46" r="10" fill="#fff"/>
  <path d="M42 46l3 3 6-7" stroke="#4F7DF3" stroke-width="2.5" stroke-linecap="round" stroke-linejoin="round"/>
  <defs>
    <linearGradient id="g" x1="8" y1="6" x2="56" y2="58" gradientUnits="userSpaceOnUse">
      <stop stop-color="#5B8DEF"/>
      <stop offset="1" stop-color="#3D6AD4"/>
    </linearGradient>
  </defs>
</svg>
